<svg width="58" height="58" viewBox="0 0 58 58" fill="none" xmlns="http://www.w3.org/2000/svg">
<circle cx="28.9473" cy="28.8608" r="28.75" fill="#FA4A34"/>
<circle cx="28.9473" cy="28.8608" r="28.75" fill="url(#paint0_linear)"/>
<path d="M21.1076 18.1816H36.7869L42.3488 25.1175L28.9473 41.828L15.5458 25.1175L21.1076 18.1816ZM27.0401 19.4262L24.6198 24.4044H33.2748L30.8545 19.4262H27.0401ZM24.4245 25.6489L28.9473 37.8006L33.4686 25.6489H24.426H24.4245ZM17.8578 24.4044H23.0718L25.4921 19.4262H21.8488L17.8578 24.4044ZM17.7124 25.6489L27.4406 37.7795L22.9264 25.6489H17.7124ZM40.0368 24.4044L36.0457 19.4262H32.4024L34.8227 24.4044H40.0368ZM40.1822 25.6489H34.9681L30.4539 37.7795L40.1822 25.6489Z" fill="white"/>
<defs>
<linearGradient id="paint0_linear" x1="0.197266" y1="0.11084" x2="69.3243" y2="24.0834" gradientUnits="userSpaceOnUse">
<stop offset="0.442708" stop-color="#E10F32"/>
<stop offset="1" stop-color="#FF5934"/>
</linearGradient>
</defs>
</svg>
