<svg width="59" height="59" viewBox="0 0 59 59" fill="none" xmlns="http://www.w3.org/2000/svg">
<circle cx="29.355" cy="29.6831" r="28.75" fill="#FA4A34"/>
<circle cx="29.355" cy="29.6831" r="28.75" fill="url(#paint0_linear)"/>
<path d="M27.8081 37.2796C29.8369 37.2792 31.8073 36.6 33.4055 35.3502L38.4302 40.3749L40.0465 38.7587L35.0217 33.7339C36.2722 32.1356 36.9518 30.1648 36.9523 28.1354C36.9523 23.0935 32.85 18.9912 27.8081 18.9912C22.7662 18.9912 18.6639 23.0935 18.6639 28.1354C18.6639 33.1773 22.7662 37.2796 27.8081 37.2796ZM27.8081 21.2773C31.5904 21.2773 34.6662 24.3531 34.6662 28.1354C34.6662 31.9177 31.5904 34.9935 27.8081 34.9935C24.0258 34.9935 20.95 31.9177 20.95 28.1354C20.95 24.3531 24.0258 21.2773 27.8081 21.2773Z" fill="white"/>
<defs>
<linearGradient id="paint0_linear" x1="0.60498" y1="0.933105" x2="69.732" y2="24.9057" gradientUnits="userSpaceOnUse">
<stop offset="0.442708" stop-color="#E10F32"/>
<stop offset="1" stop-color="#FF5934"/>
</linearGradient>
</defs>
</svg>
