<svg width="59" height="59" viewBox="0 0 59 59" fill="none" xmlns="http://www.w3.org/2000/svg">
<circle cx="29.5532" cy="29.6831" r="28.75" fill="#FA4A34"/>
<circle cx="29.5532" cy="29.6831" r="28.75" fill="url(#paint0_linear)"/>
<path d="M29.5532 19.2588C26.0588 19.2588 23.2079 22.1097 23.2079 25.6041C23.2079 27.7606 24.3048 29.6687 25.9555 30.8163C22.2344 32.2685 19.582 35.8944 19.582 40.1077H21.395C21.395 36.121 24.2875 32.7888 28.0802 32.0908L28.6468 33.7624H30.4597L31.0263 32.0908C34.819 32.7888 37.7115 36.121 37.7115 40.1077H39.5245C39.5245 35.8944 36.8721 32.2685 33.151 30.8163C34.8008 29.6687 35.8986 27.7606 35.8986 25.6041C35.8986 22.1097 33.0477 19.2588 29.5532 19.2588ZM29.5532 21.0717C32.0669 21.0717 34.0856 23.0905 34.0856 25.6041C34.0856 28.1178 32.0669 30.1365 29.5532 30.1365C27.0396 30.1365 25.0209 28.1178 25.0209 25.6041C25.0209 23.0905 27.0396 21.0717 29.5532 21.0717ZM28.6468 34.6688L27.7403 40.1077H31.3662L30.4597 34.6688H28.6468Z" fill="white"/>
<defs>
<linearGradient id="paint0_linear" x1="0.803223" y1="0.933105" x2="69.9302" y2="24.9057" gradientUnits="userSpaceOnUse">
<stop offset="0.442708" stop-color="#E10F32"/>
<stop offset="1" stop-color="#FF5934"/>
</linearGradient>
</defs>
</svg>
