<svg width="58" height="58" viewBox="0 0 58 58" fill="none" xmlns="http://www.w3.org/2000/svg">
<circle cx="28.7505" cy="28.9087" r="28.75" fill="#FA4A34"/>
<circle cx="28.7505" cy="28.9087" r="28.75" fill="url(#paint0_linear)"/>
<path d="M42.9885 23.6581L29.0778 16.2391C28.9771 16.1853 28.8647 16.1572 28.7505 16.1572C28.6364 16.1572 28.524 16.1853 28.4233 16.2391L14.5126 23.6581C14.4014 23.7174 14.3084 23.8058 14.2435 23.9139C14.1787 24.022 14.1444 24.1457 14.1444 24.2718C14.1444 24.3978 14.1787 24.5215 14.2435 24.6296C14.3084 24.7377 14.4014 24.8261 14.5126 24.8855L17.3902 26.4202V32.323C17.3905 32.6737 17.5041 33.0149 17.7139 33.2958C18.6163 34.4966 22.0788 38.4143 28.7505 38.4143C31.291 38.4143 33.3647 37.8457 35.0103 37.076V40.9646C35.0103 41.149 35.0836 41.3259 35.2141 41.4564C35.3445 41.5868 35.5214 41.6601 35.7059 41.6601C35.8903 41.6601 36.0672 41.5868 36.1977 41.4564C36.3281 41.3259 36.4014 41.149 36.4014 40.9646V36.324C37.7042 35.5283 38.8514 34.5022 39.787 33.296C39.997 33.015 40.1105 32.6738 40.1109 32.323V26.4202L42.9885 24.8855C43.0997 24.8261 43.1927 24.7377 43.2575 24.6296C43.3224 24.5215 43.3567 24.3978 43.3567 24.2718C43.3567 24.1457 43.3224 24.022 43.2575 23.9139C43.1927 23.8058 43.0997 23.7174 42.9885 23.6581ZM28.7505 37.0232C22.7234 37.0232 19.6304 33.5306 18.826 32.46C18.7965 32.4205 18.7808 32.3724 18.7812 32.323V27.1622L28.4233 32.3045C28.524 32.3582 28.6364 32.3863 28.7505 32.3863C28.8647 32.3863 28.9771 32.3582 29.0778 32.3045L35.0103 29.1405V35.5234C33.4449 36.3601 31.3764 37.0232 28.7505 37.0232ZM38.7198 32.323C38.7203 32.3724 38.7045 32.4206 38.675 32.4602C38.028 33.2977 37.262 34.0361 36.4014 34.652V28.3986L38.7198 27.1621V32.323ZM39.0867 25.39L39.0819 25.3925L35.7059 27.193L29.0778 23.6581C28.9971 23.6139 28.9085 23.5862 28.817 23.5765C28.7255 23.5669 28.6331 23.5754 28.5449 23.6017C28.4568 23.6281 28.3748 23.6716 28.3036 23.7298C28.2324 23.788 28.1734 23.8598 28.1302 23.9409C28.0869 24.0221 28.0601 24.111 28.0514 24.2026C28.0428 24.2942 28.0523 24.3865 28.0796 24.4744C28.1069 24.5622 28.1513 24.6438 28.2103 24.7143C28.2693 24.7849 28.3417 24.8431 28.4233 24.8855L34.2279 27.9813L28.7505 30.9025L18.4192 25.3925L18.4143 25.39L16.3179 24.2718L28.7505 17.641L41.1832 24.2718L39.0867 25.39Z" fill="white"/>
<defs>
<linearGradient id="paint0_linear" x1="0.000488281" y1="0.158691" x2="69.1275" y2="24.1312" gradientUnits="userSpaceOnUse">
<stop offset="0.442708" stop-color="#E10F32"/>
<stop offset="1" stop-color="#FF5934"/>
</linearGradient>
</defs>
</svg>
