<svg width="59" height="58" viewBox="0 0 59 58" fill="none" xmlns="http://www.w3.org/2000/svg">
<circle cx="29.5527" cy="28.9087" r="28.75" fill="#FA4A34"/>
<circle cx="29.5527" cy="28.9087" r="28.75" fill="url(#paint0_linear)"/>
<path d="M27.9242 19.5444C27.0333 19.5444 26.2956 20.2822 26.2956 21.173V21.9874H23.8526V21.173H22.224V21.9874H20.5954C19.7046 21.9874 18.9668 22.7251 18.9668 23.616V36.6449C18.9668 37.5358 19.7046 38.2735 20.5954 38.2735H38.5102C39.401 38.2735 40.1388 37.5358 40.1388 36.6449V23.616C40.1388 22.7251 39.401 21.9874 38.5102 21.9874H36.8816V21.173H35.253V21.9874H32.81V21.173C32.81 20.2822 32.0723 19.5444 31.1814 19.5444H27.9242ZM27.9242 21.173H31.1814V21.9874H27.9242V21.173ZM20.5954 23.616H38.5102V36.6449H36.8816V24.4303H35.253V36.6449H23.8526V24.4303H22.224V36.6449H20.5954V23.616Z" fill="white"/>
<defs>
<linearGradient id="paint0_linear" x1="0.802734" y1="0.158691" x2="69.9297" y2="24.1312" gradientUnits="userSpaceOnUse">
<stop offset="0.442708" stop-color="#E10F32"/>
<stop offset="1" stop-color="#FF5934"/>
</linearGradient>
</defs>
</svg>
