<svg width="151" height="28" viewBox="0 0 151 28" fill="none" xmlns="http://www.w3.org/2000/svg">
<g clip-path="url(#clip0)">
<path d="M16.0165 16.9701L13.3199 14.2693L16.0165 11.6504V6.24879L8.0083 14.2693L16.0165 22.2899V16.9701Z" fill="white"/>
<path d="M0 0.927956V27.6085H26.6397V0.927956H0ZM22.8807 23.8438H3.84069V4.77454H22.8807V23.8438Z" fill="white"/>
<path d="M33.2583 10.3397V8.13C33.34 8.13 33.4217 8.21184 33.5034 8.21184C33.6668 8.21184 33.8303 8.29369 34.0754 8.29369C34.7292 8.29369 35.2195 8.04816 35.4646 7.47526L35.5463 7.31158L32.3594 1.17341H35.1377L36.7721 5.02H36.8538L38.243 1.17341H41.0214L37.8344 8.04816C37.4258 8.86658 37.0172 9.52132 36.4452 9.93053C35.9549 10.3397 35.3012 10.5853 34.484 10.5853C34.1571 10.5853 33.8303 10.5853 33.5851 10.5034L33.2583 10.3397Z" fill="white"/>
<path d="M42.9824 10.4227V1.25639H45.5156V4.61193H48.866V1.25639H51.3992V10.5046H48.866V6.98535H45.5156V10.5046H42.9824V10.4227Z" fill="white"/>
<path d="M54.5044 10.4227V1.25639H57.0376V6.33061L60.96 1.25639H63.1664V10.5046H60.6331V5.34851L56.7107 10.4227H54.5044Z" fill="white"/>
<path d="M66.2717 10.4227V1.25639H70.3576C71.3382 1.25639 72.1553 1.50192 72.7273 1.99297C73.2994 2.48403 73.5445 3.05692 73.5445 3.71166C73.5445 4.3664 73.2994 4.85745 72.8091 5.26666C72.6456 5.43035 72.4005 5.51219 72.1553 5.67588C72.4822 5.83956 72.8091 5.9214 73.0542 6.16693C73.708 6.65798 73.9531 7.23088 73.9531 7.96746C73.9531 8.70404 73.6262 9.27694 73.0542 9.76799C72.4822 10.259 71.665 10.5046 70.6027 10.5046H66.2717V10.4227ZM68.8049 4.77561H70.1941C70.4393 4.77561 70.6844 4.69377 70.8479 4.53008C71.0113 4.3664 71.093 4.20271 71.093 3.95719C71.093 3.71166 70.9296 3.54798 70.7661 3.38429C70.6027 3.22061 70.4393 3.13877 70.1124 3.13877H68.7232V4.77561H68.8049ZM68.8049 8.45851H70.521C70.8479 8.45851 71.0113 8.37667 71.2564 8.21299C71.4199 8.0493 71.5016 7.80377 71.5016 7.55825C71.5016 7.31272 71.4199 7.06719 71.2564 6.90351C71.0113 6.73983 70.7662 6.65798 70.521 6.65798H68.8049V8.45851Z" fill="white"/>
<path d="M76.5681 10.4227V1.25639H83.5958V3.46613H79.0196V4.77561H82.5335V6.90351H79.0196V8.21299H83.6775V10.4227H76.5681Z" fill="white"/>
<path d="M86.3743 10.4227V1.25639H90.5418C91.5224 1.25639 92.3396 1.58376 92.9933 2.15666C93.6471 2.72955 93.9739 3.54798 93.9739 4.44824C93.9739 5.34851 93.6471 6.16693 92.9933 6.73982C92.3396 7.31272 91.5224 7.64009 90.5418 7.64009H88.9075V10.4227H86.3743ZM88.9075 5.43035H90.4601C90.787 5.43035 91.0321 5.34851 91.1956 5.10298C91.4407 4.9393 91.5224 4.69377 91.5224 4.44824C91.5224 4.20271 91.4407 3.95719 91.1956 3.7935C90.9504 3.62982 90.7053 3.46613 90.4601 3.46613H88.9075V5.43035Z" fill="white"/>
<path d="M103.698 7.23086L105.251 8.94955C104.924 9.27692 104.597 9.60429 104.189 9.84982C103.29 10.4227 102.309 10.7501 101.165 10.7501C99.6941 10.7501 98.4684 10.259 97.4877 9.35876C96.5071 8.37666 96.0168 7.23086 96.0168 5.92139C96.0168 4.61191 96.5071 3.38428 97.4877 2.48401C98.4684 1.5019 99.6941 1.09269 101.165 1.09269C102.309 1.09269 103.29 1.42006 104.107 1.99296C104.515 2.23848 104.842 2.56585 105.087 2.89322L103.535 4.61191C103.371 4.36638 103.126 4.2027 102.881 4.03901C102.309 3.6298 101.737 3.46612 101.083 3.46612C100.348 3.46612 99.7758 3.71165 99.2855 4.2027C98.7952 4.69375 98.5501 5.26665 98.5501 6.00323C98.5501 6.73981 98.7952 7.31271 99.2855 7.80376C99.7758 8.29481 100.348 8.54034 101.083 8.54034C101.655 8.54034 102.309 8.37666 102.881 7.96744C103.208 7.64007 103.453 7.39455 103.698 7.23086Z" fill="white"/>
<path d="M107.539 10.4227V1.25639H110.072V6.33061L113.994 1.25639H116.201V10.5046H113.667V5.34851L109.745 10.4227H107.539Z" fill="white"/>
<path d="M121.104 10.4227V3.46613H118.57V1.25639H126.17V3.46613H123.637V10.4227H121.104Z" fill="white"/>
<path d="M128.54 10.4227V1.25639H135.567V3.46613H130.991V4.77561H134.505V6.90351H130.991V8.21299H135.649V10.4227H128.54Z" fill="white"/>
<path d="M140.062 10.4227V3.46613H137.529V1.25639H145.129V3.46613H142.595V10.4227H140.062Z" fill="white"/>
<path d="M43.5548 22.3717L45.8429 24.9906C45.3526 25.4817 44.8623 25.9728 44.2903 26.382C42.9828 27.2822 41.4302 27.7733 39.7141 27.7733C37.4261 27.7733 35.5466 27.0367 34.0757 25.5635C32.6048 24.0904 31.7876 22.3717 31.7876 20.2438C31.7876 18.1159 32.523 16.3972 34.0757 14.924C35.5466 13.4509 37.4261 12.7143 39.7141 12.7143C41.4302 12.7143 42.9011 13.2054 44.2903 14.1056C44.8623 14.5148 45.3526 15.0059 45.8429 15.4969L43.4731 18.1159C43.1462 17.7885 42.8194 17.4612 42.4108 17.2156C41.5119 16.6427 40.613 16.3154 39.7141 16.3154C38.5701 16.3154 37.6712 16.7246 36.9358 17.4612C36.2003 18.1977 35.7917 19.1798 35.7917 20.2438C35.7917 21.3896 36.2003 22.2899 36.9358 23.0264C37.6712 23.763 38.6518 24.1722 39.7141 24.1722C40.613 24.1722 41.5119 23.8449 42.4925 23.272C42.9011 23.0264 43.3097 22.6991 43.5548 22.3717Z" fill="white"/>
<path d="M47.5586 27.364V13.2053H51.3993V20.9803L57.4463 13.2053H60.7967V27.364H56.956V19.589L50.909 27.364H47.5586Z" fill="white"/>
<path d="M63.7385 27.364V13.2053H67.5792V18.3614H72.7274V13.2053H76.5681V27.364H72.7274V21.9624H67.5792V27.364H63.7385Z" fill="white"/>
<path d="M79.428 27.364V13.2053H90.2146V16.6427H83.2687V18.6888H88.662V21.9624H83.2687V24.0085H90.4597V27.4459H79.428V27.364Z" fill="white"/>
<path d="M92.5845 27.364V13.2053H98.9584C100.511 13.2053 101.737 13.6964 102.717 14.5966C103.698 15.4969 104.188 16.7245 104.188 18.1159C104.188 19.5072 103.698 20.7348 102.717 21.6351C101.737 22.5353 100.511 23.0264 98.9584 23.0264H96.4252V27.2822H92.5845V27.364ZM96.4252 19.6709H98.7132C99.1218 19.6709 99.5304 19.5072 99.8573 19.1798C100.184 18.8524 100.348 18.5251 100.348 18.1159C100.348 17.7066 100.184 17.3793 99.8573 17.0519C99.5304 16.7245 99.1218 16.5609 98.7132 16.5609H96.4252V19.6709Z" fill="white"/>
<path d="M106.313 27.364V13.2053H116.201V16.8882H110.154V27.4459H106.313V27.364Z" fill="white"/>
<path d="M117.835 27.364V13.2053H121.676V20.9803L127.723 13.2053H131.073V27.364H127.232V19.589L121.185 27.364H117.835Z" fill="white"/>
<path d="M132.87 27.364L135.812 22.1261C135.322 21.8806 134.913 21.6351 134.586 21.2259C133.769 20.4074 133.361 19.3435 133.361 18.034C133.361 16.6427 133.851 15.4969 134.832 14.5966C135.812 13.6964 137.038 13.2053 138.509 13.2053H145.21V27.364H141.369V22.9446H139.244L136.956 27.364H132.87ZM138.754 19.4253H141.369V16.5609H138.754C138.345 16.5609 137.937 16.7245 137.692 16.9701C137.446 17.2156 137.283 17.543 137.283 17.9522C137.283 18.3614 137.446 18.6888 137.692 18.9343C137.937 19.3435 138.264 19.4253 138.754 19.4253Z" fill="white"/>
</g>
<defs>
<clipPath id="clip0">
<rect width="150.328" height="26.8443" fill="white" transform="translate(0 0.930679)"/>
</clipPath>
</defs>
</svg>
