<svg width="74" height="74" viewBox="0 0 74 74" fill="none" xmlns="http://www.w3.org/2000/svg">
<circle cx="37.2801" cy="36.72" r="36.72" fill="black"/>
<path d="M42.1206 42.0522L44.4054 39.7674C44.7131 39.4635 45.1025 39.2554 45.5262 39.1685C45.9499 39.0816 46.3897 39.1196 46.7922 39.2778L49.5768 40.3896C49.9836 40.5547 50.3324 40.8366 50.5792 41.1996C50.8261 41.5626 50.96 41.9906 50.964 42.4296V47.5296C50.9616 47.8282 50.8989 48.1233 50.7794 48.397C50.66 48.6708 50.4865 48.9175 50.2692 49.1224C50.0519 49.3273 49.7954 49.4861 49.5152 49.5892C49.2349 49.6924 48.9367 49.7378 48.6384 49.7226C29.1258 48.5088 25.1886 31.9848 24.444 25.6608C24.4094 25.3503 24.441 25.0359 24.5367 24.7384C24.6323 24.441 24.7899 24.1671 24.999 23.9349C25.208 23.7027 25.4639 23.5174 25.7498 23.3912C26.0356 23.265 26.3449 23.2007 26.6574 23.2026H31.584C32.0236 23.2039 32.4528 23.3367 32.8164 23.5839C33.1799 23.8311 33.4612 24.1814 33.624 24.5898L34.7358 27.3744C34.8993 27.7753 34.941 28.2155 34.8557 28.64C34.7704 29.0645 34.562 29.4545 34.2564 29.7612L31.9716 32.046C31.9716 32.046 33.2874 40.9506 42.1206 42.0522Z" fill="white"/>
</svg>
